<?xml version="1.0" encoding="utf-8"?>
<!-- Generator: Adobe Illustrator 17.1.0, SVG Export Plug-In . SVG Version: 6.00 Build 0)  -->
<!DOCTYPE svg PUBLIC "-//W3C//DTD SVG 1.1//EN" "http://www.w3.org/Graphics/SVG/1.1/DTD/svg11.dtd">
<svg width="100" height="100" version="1.1" id="molecules" xmlns="http://www.w3.org/2000/svg" xmlns:xlink="http://www.w3.org/1999/xlink" x="0px" y="0px"
	 viewBox="0 0 1009.9971 1005.9859" enable-background="new 0 0 1009.9971 1005.9859" xml:space="preserve">
<g id="molecules-molecules">
	<g id="molecules-fill">
		<path fill="#78909C" d="M475.8195,119.5103c18.0923,70.5151-24.3681,142.3848-94.9228,160.4766
			c-70.5147,18.0922-142.3843-24.4082-160.4766-94.9029c-18.0918-70.5547,24.3887-142.3647,94.9234-160.5166
			C385.8382,6.4756,457.7278,48.9556,475.8195,119.5103z"/>
		<path fill="#78909C" d="M60.0237,759.5933c52.0044-50.9687,135.4903-50.0918,186.419,1.9531
			c50.9482,52.0039,50.0913,135.4903-1.9527,186.418c-52.0444,50.9287-135.4907,50.0527-186.4589-1.9922
			C7.1028,894.0074,7.9793,810.521,60.0237,759.5933z"/>
		<path fill="#78909C" d="M822.2269,799.6421c-70.1368-19.6054-111.1016-92.2929-91.5352-162.4687
			c19.5859-70.0957,92.332-111.0625,162.4287-91.4961c70.1563,19.5273,111.1416,92.3329,91.5362,162.4297
			C965.05,778.2828,892.3234,819.2085,822.2269,799.6421z"/>
		<path fill="#FFAB00" d="M573.7015,528.5025c17.1758,66.8291-23.0928,134.9326-89.9517,152.1084
			c-66.8682,17.1348-134.9126-23.1133-152.0679-89.9824c-17.1753-66.8282,23.0733-134.8824,89.9019-152.0777
			C488.4124,421.3951,556.5461,461.6636,573.7015,528.5025z"/>
	</g>
	<path fill="#43525B" d="M990.3148,597.8814c-19.9844-35.4268-52.5625-60.9307-91.6954-71.8496
		c-13.4091-3.7363-27.2168-5.6494-41.0253-5.6494c-55.7901,0-105.9815,31.1133-132.4415,78.416l-127.2226-39.1328
		c-0.0195-12.0752-1.374-24.2295-4.4629-36.2246c-16.5176-64.3277-74.3701-109.2388-140.7202-109.2388
		c-3.2681,0-6.5357,0.3984-9.8032,0.6177l-33.8726-123.1768c29.1504-12.6723,53.5981-33.9521,70.0962-61.8472
		c20.6821-35.0087,26.52-75.9746,16.4184-115.3461C478.3104,47.063,417.6985,0,348.2,0c-12.7324,0-25.5044,1.6138-37.9375,4.8018
		c-81.2744,20.9214-130.4492,104.0689-109.6079,185.3628c17.2949,67.3467,77.8872,114.3901,147.3857,114.3901
		c7.2925,0,14.5655-0.6777,21.7984-1.7334l33.0556,120.2076c-69.3794,25.2651-109.7275,99.7451-90.978,172.6601
		c4.8018,18.7305,13.4097,35.5078,24.4082,50.332l-96.2978,83.4454c-25.5039-18.0918-55.8101-27.9346-87.7901-27.9346
		c-40.0693,0-77.8867,15.4219-106.4795,43.4765c-29.0703,28.4522-45.3095,66.5098-45.748,107.1573
		c-0.438,40.6865,15.0039,79.0625,43.437,108.0732c28.8911,29.5283,67.5459,45.7471,108.8306,45.7471
		c40.0293,0,77.8471-15.4219,106.4795-43.4356c29.0708-28.4531,45.3095-66.5097,45.728-107.1972
		c0.3784-36.0645-11.7954-70.336-34.4107-97.9121l94.7837-82.1309c24.6075,18.6895,55.1128,29.6484,87.75,29.6484
		c12.1543,0,24.3286-1.5136,36.2237-4.582c37.6089-9.6445,69.2104-33.3945,88.976-66.7891
		c6.2159-10.5205,10.8584-21.6386,14.2266-33.0361L709.889,636.815c-19.2071,79.2217,27.7168,160.3564,106.8593,182.4736
		c13.3887,3.7461,27.1973,5.6582,40.9854,5.6582c67.9844,0,128.2568-45.7871,146.5693-111.3408
		C1015.2609,674.4332,1010.2991,633.3482,990.3148,597.8814z M240.1858,180.023c-15.2622-59.5161,20.7422-120.3872,80.2383-135.6899
		c9.106-2.3511,18.4507-3.5264,27.7759-3.5264c50.8486,0,95.2017,34.4502,107.854,83.7646
		c7.3926,28.8516,3.1284,58.8389-12.0146,84.4424c-15.1431,25.624-39.3721,43.8154-68.2037,51.2075
		c-9.1254,2.3511-18.4702,3.5269-27.7954,3.5269C297.1917,263.7481,252.8387,229.3174,240.1858,180.023z M230.2234,933.3794
		c-20.9609,20.5225-48.6567,31.8008-77.9467,31.8008c-30.2266,0-58.5201-11.876-79.6802-33.4736
		c-20.8018-21.2402-32.0996-49.335-31.7808-79.1035c0.3189-29.7676,12.2144-57.6231,33.4942-78.4649
		c20.9414-20.5225,48.6172-31.8008,77.9267-31.8008c30.2066,0,58.5,11.876,79.6206,33.4747
		c20.8418,21.2802,32.1392,49.375,31.8204,79.1425C263.3787,884.7222,251.4837,912.5777,230.2234,933.3794z M542.678,612.7847
		c-14.2265,24.0703-36.9506,41.126-63.9887,48.0606c-8.5679,2.1914-17.335,3.3066-26.0821,3.3066
		c-47.7006,0-89.2841-32.3184-101.1596-78.584c-14.3462-55.8301,19.4072-112.8857,75.2173-127.2514
		c8.5478-2.1919,17.3344-3.3077,26.082-3.3077c47.7002,0,89.3139,32.2984,101.1889,78.5943
		C560.8898,560.6216,556.8851,588.7554,542.678,612.7847z M965.0101,702.607c-13.4102,48.0195-57.5235,81.5342-107.2764,81.5342
		c-10.082,0-20.1846-1.3955-30.0068-4.1446c-59.1778-16.5381-93.8868-78.1455-77.3887-137.3232
		c13.4082-47.9805,57.5234-81.4942,107.2559-81.4942c10.1015,0,20.2041,1.3946,30.0468,4.1446
		c28.6719,8.0097,52.503,26.6601,67.1074,52.6015C969.3939,643.8687,973.0198,673.9546,965.0101,702.607z"/>
</g>
</svg>
